<svg width="32" height="32" viewBox="0 0 32 32" fill="none" xmlns="http://www.w3.org/2000/svg">
    <rect width="32" height="32" rx="8" fill="#18181B" />
    <path
        d="M21 10.5C21 10.6326 20.9473 10.7598 20.8536 10.8536C20.7598 10.9473 20.6326 11 20.5 11H18.6694C18.318 10.9999 17.9777 11.1232 17.7079 11.3483C17.4381 11.5734 17.2559 11.8861 17.1931 12.2319L16.5994 15.5H19.5C19.6326 15.5 19.7598 15.5527 19.8536 15.6464C19.9473 15.7402 20 15.8674 20 16C20 16.1326 19.9473 16.2598 19.8536 16.3536C19.7598 16.4473 19.6326 16.5 19.5 16.5H16.4175L15.7925 19.9475C15.6876 20.5238 15.3837 21.0451 14.9338 21.4202C14.4838 21.7953 13.9164 22.0005 13.3306 22H11.5C11.3674 22 11.2402 21.9473 11.1464 21.8536C11.0527 21.7598 11 21.6326 11 21.5C11 21.3674 11.0527 21.2402 11.1464 21.1464C11.2402 21.0527 11.3674 21 11.5 21H13.3306C13.682 21.0001 14.0223 20.8768 14.2921 20.6517C14.5619 20.4266 14.7441 20.1139 14.8069 19.7681L15.4006 16.5H12.5C12.3674 16.5 12.2402 16.4473 12.1464 16.3536C12.0527 16.2598 12 16.1326 12 16C12 15.8674 12.0527 15.7402 12.1464 15.6464C12.2402 15.5527 12.3674 15.5 12.5 15.5H15.5825L16.2075 12.0525C16.3124 11.4762 16.6163 10.9549 17.0662 10.5798C17.5162 10.2047 18.0836 9.99947 18.6694 10H20.5C20.6326 10 20.7598 10.0527 20.8536 10.1464C20.9473 10.2402 21 10.3674 21 10.5Z"
        fill="#E4E4E7" />
</svg>